<svg xmlns="http://www.w3.org/2000/svg" width="137" height="102" viewBox="0 0 137 102">
  <path fill="#808DFE" fill-rule="evenodd" d="M109.674423,102 C109.674423,102 106.317302,101.529683 104.018519,95.9475664 C104.018519,95.9475664 107.725726,96.2301941 109.674423,102 Z M32.9814815,95.9475664 C30.6826979,101.529683 27.3255773,102 27.3255773,102 C29.2742739,96.2301941 32.9814815,95.9475664 32.9814815,95.9475664 Z M117.066616,95.2612098 C117.066616,95.2612098 111.210431,98.3163018 104.918825,91.5531426 C104.918825,91.5531426 111.28271,87.7805436 117.066616,95.2612098 Z M19.9333842,95.2612098 C25.7172902,87.7805436 32.081175,91.5531426 32.081175,91.5531426 C25.7895689,98.3163018 19.9333842,95.2612098 19.9333842,95.2612098 Z M123.622974,88.9609738 C123.622974,88.9609738 118.053078,93.2003898 111.283652,87.7906499 C111.283652,87.7906499 117.301353,82.734851 123.622974,88.9609738 Z M13.3770256,88.9609738 C19.6986469,82.734851 25.716348,87.7906499 25.716348,87.7906499 C18.9469222,93.2003898 13.3770256,88.9609738 13.3770256,88.9609738 Z M114.026754,76.9853672 C114.026754,76.9853672 111.694321,86.2346442 104.459189,89.7038341 C104.459189,89.7038341 106.780855,79.3607964 114.026754,76.9853672 Z M22.973246,76.9853672 C30.2191455,79.3607964 32.5408106,89.7038341 32.5408106,89.7038341 C25.3056789,86.2346442 22.973246,76.9853672 22.973246,76.9853672 Z M130.102693,78.7011932 C130.102693,78.7011932 125.393007,85.1298804 117.994609,82.737826 C117.994609,82.737826 123.007273,75.3328481 130.102693,78.7011932 Z M6.89730653,78.7011932 C13.9927265,75.3328481 19.0053912,82.737826 19.0053912,82.737826 C11.6069932,85.1298804 6.89730653,78.7011932 6.89730653,78.7011932 Z M122.229289,64.9618977 L122.22854,65.0055428 C122.213317,65.7270505 121.905262,75.2457124 116.176862,82.4769422 L116.176607,82.3448065 C116.182548,81.0814973 116.415512,71.0525514 122.229289,64.9618977 Z M14.7707111,64.9618977 C20.5844876,71.0525514 20.8174523,81.0814973 20.8233925,82.3448065 L20.8231383,82.4769422 C15.0947381,75.2457124 14.786683,65.7270505 14.7714604,65.0055428 L14.7714604,65.0055428 Z M132.550018,66.2883011 C132.550018,66.2883011 129.465995,74.9364474 122.007971,76.7754964 C122.007971,76.7754964 125.172618,67.0414647 132.550018,66.2883011 Z M4.44998155,66.2883011 C11.8273824,67.0414647 14.9920291,76.7754964 14.9920291,76.7754964 C7.53400458,74.9364474 4.44998155,66.2883011 4.44998155,66.2883011 Z M125.88076,48.4379971 C125.88076,48.4379971 128.126243,57.7437122 124.369907,68.3757213 L124.365519,68.3591064 C124.245845,67.9012859 121.751358,58.0594075 125.88076,48.4379971 Z M11.1192402,48.4379971 C15.2486424,58.0594075 12.7541549,67.9012859 12.634481,68.3591064 L12.634481,68.3591064 L12.6300925,68.3757213 C8.87375706,57.7437122 11.1192402,48.4379971 11.1192402,48.4379971 Z M137,52.4533016 C137,52.4533016 134.532835,61.609609 127.24898,64.7979211 C127.24898,64.7979211 129.721393,54.5478531 137,52.4533016 Z M-1.20792265e-12,52.4533016 C7.27860661,54.5478531 9.75102048,64.7979211 9.75102048,64.7979211 C2.46716458,61.609609 -1.20792265e-12,52.4533016 -1.20792265e-12,52.4533016 Z M135.369975,38.1342254 L135.369501,38.1537186 C135.356281,38.6448513 135.023164,48.3139618 129.148091,55.4917685 L129.148507,55.4091304 C129.158891,54.3888678 129.412265,44.1611924 135.369975,38.1342254 Z M1.63002455,38.1342254 C7.58773455,44.1611924 7.84110855,54.3888678 7.85149294,55.4091304 L7.85149294,55.4091304 L7.85190944,55.4917685 C1.97683637,48.3139618 1.64371912,38.6448513 1.63049882,38.1537186 Z M124.654661,31.8137986 C124.654661,31.8137986 129.140917,38.6513336 128.557169,50.8745457 C128.557169,50.8745457 123.438442,43.6633821 124.654661,31.8137986 Z M12.3453389,31.8137986 C13.5615582,43.6633821 8.44283103,50.8745457 8.44283103,50.8745457 C7.85908346,38.6513336 12.3453389,31.8137986 12.3453389,31.8137986 Z M134.596702,24.1480682 C134.596702,24.1480682 135.685727,33.9860072 130.729054,43.2276279 C130.729054,43.2276279 129.269484,32.4766175 134.596702,24.1480682 Z M2.40329827,24.1480682 C7.73051633,32.4766175 6.27094553,43.2276279 6.27094553,43.2276279 C1.31427324,33.9860072 2.40329827,24.1480682 2.40329827,24.1480682 Z M129.065879,14.6749639 C129.065879,14.6749639 131.96187,23.4935181 128.991446,34.7629709 C128.991446,34.7629709 125.570527,25.2603789 129.065879,14.6749639 Z M7.93412134,14.6749639 C11.4294731,25.2603789 8.00855353,34.7629709 8.00855353,34.7629709 C5.03813044,23.4935181 7.93412134,14.6749639 7.93412134,14.6749639 Z M117.881561,17.2588858 C117.881561,17.2588858 123.740706,20.2977903 126.446915,31.7415886 C126.446915,31.7415886 119.91788,28.8074664 117.881561,17.2588858 Z M19.1184393,17.2588858 C17.08212,28.8074664 10.5530845,31.7415886 10.5530845,31.7415886 C13.2592935,20.2977903 19.1184393,17.2588858 19.1184393,17.2588858 Z M122.331677,4.27004134 C122.331677,4.27004134 126.842967,11.0642634 126.303906,23.2927255 L126.293426,23.2778919 C126.037486,22.9125495 121.189663,15.8190824 122.331677,4.27004134 Z M14.6683231,4.27004134 C15.8103369,15.8190824 10.9625138,22.9125495 10.7065743,23.2778919 L10.6960939,23.2927255 C10.1570326,11.0642634 14.6683231,4.27004134 14.6683231,4.27004134 Z M113.078921,0 C113.078921,0 118.731999,3.93753812 120.750955,15.7501525 L120.675949,15.7005756 C119.960385,15.2129801 114.338612,11.0553955 113.078921,0 Z M23.9210786,0 C22.661388,11.0553955 17.0396146,15.2129801 16.3240507,15.7005756 L16.3240507,15.7005756 L16.2490448,15.7501525 C18.268001,3.93753812 23.9210786,0 23.9210786,0 Z"/>
</svg>
